<svg width="2339" height="100" viewBox="0 0 2339 100" fill="none" xmlns="http://www.w3.org/2000/svg">
<path d="M-14.1784 100H2334.84C2348.18 100 2359 89.1838 2359 75.8413C2359 61.1091 2345.93 49.8072 2331.35 51.9362L2273.54 60.3793C2269.39 60.9846 2265.19 61.056 2261.02 60.5915L2152.19 48.4497C2148.9 48.0829 2145.59 48.05 2142.29 48.3515L2095.09 52.6722C2090.16 53.1234 2085.19 52.825 2080.35 51.7871L2070.49 49.673C2065.01 48.4984 2059.37 48.2719 2053.82 49.0033L2018.53 53.6493C2013.77 54.2761 2008.95 54.1999 2004.21 53.4233L1976.18 48.8287C1972.41 48.2104 1968.72 47.1529 1965.2 45.6777L1944.73 37.115C1935.46 33.2368 1925.22 32.3024 1915.4 34.4385L1885.07 41.037C1882.01 41.7032 1878.89 42.074 1875.76 42.1445L1768.75 44.5498L1714.42 39.9394C1711.19 39.6654 1707.94 39.7124 1704.72 40.0798L1678.87 43.0289C1674.89 43.4831 1670.87 43.4474 1666.9 42.9227L1646.23 40.1922C1642.89 39.7502 1639.5 39.655 1636.14 39.9082L1365.45 60.273C1356.59 60.9392 1347.72 59.1865 1339.79 55.2024L1323.46 47.0087C1313.8 42.1577 1302.81 40.6389 1292.19 42.6887L1271.06 46.7688C1267.17 47.5189 1263.21 47.7957 1259.26 47.5933L1115.15 40.2109C1106.42 39.7634 1097.72 41.6624 1089.97 45.7107L1075.82 53.0995C1066.14 58.1495 1054.48 57.5153 1045.42 51.4459C1041.92 49.1071 1037.97 47.5334 1033.83 46.828L950.353 32.622C944.658 31.6528 938.836 31.6983 933.157 32.7565L792.308 58.9996C784.423 60.4686 776.277 58.7933 769.613 54.3321C763.417 50.1851 755.924 48.4348 748.533 49.4081L665.47 60.3458C660.71 60.9726 655.884 60.8964 651.146 60.1198L576.591 47.898L526.965 34.4311C519.047 32.2826 510.718 32.1563 502.739 34.0637L453.191 45.9086C447.685 47.2249 441.992 47.5771 436.366 46.9493L303.767 32.1563C297.843 31.4955 292.09 29.7595 286.79 27.0337L246.095 6.10532C233.601 -0.320026 218.95 -1.07331 205.863 4.03678L171.844 17.32C168.241 18.7269 164.484 19.7023 160.651 20.2256L-17.9427 44.613C-31.7255 46.495 -42 58.2679 -42 72.1786C-42 87.5439 -29.5438 100 -14.1784 100Z" fill="#76BCBC"/>
</svg>
