<svg width="2339" height="104" viewBox="0 0 2339 104" fill="none" xmlns="http://www.w3.org/2000/svg">
<g clip-path="url(#clip0_120_58)">
<path d="M-14.1784 104L2334.84 104C2348.18 104 2359 93.1838 2359 79.8413C2359 65.1091 2345.93 53.8072 2331.35 55.9362L2273.54 64.3793C2269.39 64.9846 2265.19 65.056 2261.02 64.5915L2152.19 52.4497C2148.9 52.0829 2145.59 52.05 2142.29 52.3515L2095.09 56.6722C2090.16 57.1234 2085.19 56.825 2080.35 55.7871L2070.49 53.673C2065.01 52.4984 2059.37 52.2719 2053.82 53.0033L2018.53 57.6493C2013.77 58.2761 2008.95 58.1999 2004.21 57.4233L1976.18 52.8287C1972.41 52.2104 1968.72 51.1529 1965.2 49.6777L1944.73 41.115C1935.46 37.2368 1925.22 36.3024 1915.4 38.4385L1885.07 45.0369C1882.01 45.7032 1878.89 46.074 1875.76 46.1445L1768.75 48.5498L1714.42 43.9394C1711.19 43.6654 1707.94 43.7124 1704.72 44.0798L1678.87 47.0289C1674.89 47.4831 1670.87 47.4474 1666.9 46.9227L1646.23 44.1922C1642.89 43.7502 1639.5 43.655 1636.14 43.9082L1365.45 64.273C1356.59 64.9392 1347.72 63.1865 1339.79 59.2024L1323.46 51.0087C1313.8 46.1577 1302.81 44.6389 1292.19 46.6887L1271.06 50.7688C1267.17 51.5189 1263.21 51.7957 1259.26 51.5933L1115.15 44.2109C1106.42 43.7634 1097.72 45.6624 1089.97 49.7107L1075.82 57.0995C1066.14 62.1495 1054.48 61.5153 1045.42 55.4459C1041.92 53.1071 1037.97 51.5334 1033.83 50.828L950.353 36.622C944.658 35.6528 938.836 35.6983 933.157 36.7565L792.308 62.9996C784.423 64.4686 776.277 62.7933 769.613 58.3321C763.417 54.1851 755.924 52.4348 748.533 53.4081L665.47 64.3458C660.71 64.9726 655.884 64.8964 651.146 64.1198L576.591 51.898L526.965 38.4311C519.047 36.2826 510.718 36.1563 502.739 38.0637L453.191 49.9086C447.685 51.2249 441.992 51.5771 436.366 50.9493L303.767 36.1563C297.843 35.4955 292.09 33.7595 286.79 31.0337L246.095 10.1053C233.601 3.67997 218.95 2.92669 205.863 8.03678L171.844 21.32C168.241 22.7269 164.484 23.7023 160.651 24.2256L-17.9427 48.613C-31.7255 50.495 -42 62.2679 -42 76.1786C-42 91.5439 -29.5438 104 -14.1784 104Z" fill="#F9F9F9"/>
</g>
<defs>
<clipPath id="clip0_120_58">
<rect width="2339" height="104" fill="white"/>
</clipPath>
</defs>
</svg>
